0
SECTION
2
HEADER
9
$INSUNITS
70
4
9
$ACADVER
1
AC1014
9
$HANDSEED
5
FFFF
0
ENDSEC
0
SECTION
2
TABLES
0
TABLE
2
VPORT
5
8
100
AcDbSymbolTable
0
ENDTAB
0
TABLE
2
LTYPE
5
5
100
AcDbSymbolTable
0
LTYPE
5
14
100
AcDbSymbolTableRecord
100
AcDbLinetypeTableRecord
2
BYBLOCK
70
0
0
LTYPE
5
15
100
AcDbSymbolTableRecord
100
AcDbLinetypeTableRecord
2
BYLAYER
70
0
0
ENDTAB
0
TABLE
2
LAYER
5
2
100
AcDbSymbolTable
70
2
0
LAYER
5
50
100
AcDbSymbolTableRecord
100
AcDbLayerTableRecord
2
0
70
0
6
CONTINUOUS
0
ENDTAB
0
TABLE
2
STYLE
5
3
100
AcDbSymbolTable
70
1
0
STYLE
5
11
100
AcDbSymbolTableRecord
100
AcDbTextStyleTableRecord
2
STANDARD
70
0
0
ENDTAB
0
TABLE
2
VIEW
5
6
100
AcDbSymbolTable
70
0
0
ENDTAB
0
TABLE
2
UCS
5
7
100
AcDbSymbolTable
70
0
0
ENDTAB
0
TABLE
2
APPID
5
9
100
AcDbSymbolTable
70
2
0
APPID
5
12
100
AcDbSymbolTableRecord
100
AcDbRegAppTableRecord
2
ACAD
70
0
0
ENDTAB
0
TABLE
2
DIMSTYLE
5
A
100
AcDbSymbolTable
70
1
0
ENDTAB
0
TABLE
2
BLOCK_RECORD
5
1
100
AcDbSymbolTable
70
1
0
BLOCK_RECORD
5
1F
100
AcDbSymbolTableRecord
100
AcDbBlockTableRecord
2
*MODEL_SPACE
0
BLOCK_RECORD
5
1B
100
AcDbSymbolTableRecord
100
AcDbBlockTableRecord
2
*PAPER_SPACE
0
ENDTAB
0
ENDSEC
0
SECTION
2
BLOCKS
0
BLOCK
5
20
100
AcDbEntity
100
AcDbBlockBegin
2
*MODEL_SPACE
0
ENDBLK
5
21
100
AcDbEntity
100
AcDbBlockEnd
0
BLOCK
5
1C
100
AcDbEntity
100
AcDbBlockBegin
2
*PAPER_SPACE
0
ENDBLK
5
1D
100
AcDbEntity
100
AcDbBlockEnd
0
ENDSEC
0
SECTION
2
ENTITIES
0
LWPOLYLINE
5
100
100
AcDbEntity
8
0
100
AcDbPolyline
90
28
70
1
43
0.0
10
-760.87258184794325
20
-212.64920093732093
10
-760.87258184794325
20
-216.64920093732096
10
-750.87258184794325
20
-216.64920093732096
10
-750.87258184794325
20
-212.64920093732093
10
-740.87258184794325
20
-212.64920093732093
10
-740.87258184794291
20
-311.64920093732098
10
-882.8725818479428
20
-311.64920093732115
10
-882.87258184794314
20
-212.64920093732113
10
-872.87258184794314
20
-212.64920093732113
10
-872.87258184794314
20
-216.64920093732115
10
-862.87258184794314
20
-216.64920093732115
10
-862.87258184794314
20
-212.6492009373211
10
-850.47258184794316
20
-212.6492009373211
10
-850.47258184794316
20
-216.6492009373211
10
-840.47258184794316
20
-216.6492009373211
10
-840.47258184794316
20
-212.6492009373211
10
-828.07258184794318
20
-212.6492009373211
10
-828.07258184794318
20
-216.64920093732107
10
-818.07258184794318
20
-216.64920093732107
10
-818.07258184794318
20
-212.64920093732104
10
-805.67258184794332
20
-212.64920093732101
10
-805.67258184794332
20
-216.64920093732104
10
-795.67258184794332
20
-216.64920093732104
10
-795.67258184794309
20
-212.64920093732098
10
-783.27258184794323
20
-212.64920093732098
10
-783.27258184794323
20
-216.64920093732098
10
-773.27258184794323
20
-216.64920093732098
10
-773.27258184794323
20
-212.64920093732093
0
LWPOLYLINE
5
101
100
AcDbEntity
8
0
100
AcDbPolyline
90
4
70
1
43
0.0
10
-809.27258184794323
20
-109.79734908546956
10
-813.27258184794334
20
-109.79734908546956
10
-813.27258184794334
20
-126.20475649287695
10
-809.27258184794323
20
-126.20475649287698
0
LWPOLYLINE
5
102
100
AcDbEntity
8
0
100
AcDbPolyline
90
4
70
1
43
0.0
10
-809.27258184794323
20
-154.0566083447288
10
-809.27258184794323
20
-137.64920093732138
10
-813.27258184794334
20
-137.64920093732138
10
-813.27258184794334
20
-154.0566083447288
0
LWPOLYLINE
5
103
100
AcDbEntity
8
0
100
AcDbPolyline
90
4
70
1
43
0.0
10
-809.27258184794323
20
-181.90846019658065
10
-809.27258184794323
20
-165.50105278917323
10
-813.27258184794334
20
-165.50105278917323
10
-813.27258184794334
20
-181.90846019658065
0
LWPOLYLINE
5
104
100
AcDbEntity
8
0
100
AcDbPolyline
90
92
70
1
43
0.0
10
-756.27258184794323
20
-94.352904641025191
10
-756.27258184794323
20
-98.352904641025205
10
-746.27258184794323
20
-98.352904641025205
10
-746.27258184794323
20
-94.352904641025205
10
-736.27258184794323
20
-94.352904641025219
10
-736.27258184794323
20
-105.79734908546965
10
-740.27258184794323
20
-105.79734908546961
10
-740.27258184794323
20
-117.24179352991406
10
-736.27258184794323
20
-117.24179352991406
10
-736.27258184794323
20
-128.68623797435851
10
-740.27258184794323
20
-128.68623797435851
10
-740.27258184794323
20
-140.13068241880296
10
-736.27258184794323
20
-140.13068241880296
10
-736.27258184794323
20
-151.57512686324739
10
-740.27258184794323
20
-151.57512686324739
10
-740.27258184794323
20
-163.01957130769185
10
-736.27258184794323
20
-163.01957130769185
10
-736.27258184794323
20
-174.46401575213631
10
-740.27258184794323
20
-174.46401575213631
10
-740.272581847943
20
-185.90846019658073
10
-736.27258184794312
20
-185.90846019658071
10
-736.27258184794312
20
-197.35290464102516
10
-746.27258184794312
20
-197.35290464102516
10
-746.27258184794312
20
-193.35290464102516
10
-756.27258184794312
20
-193.35290464102516
10
-756.27258184794312
20
-197.35290464102516
10
-766.27258184794312
20
-197.35290464102516
10
-766.27258184794312
20
-193.35290464102516
10
-776.27258184794312
20
-193.35290464102516
10
-776.27258184794312
20
-197.35290464102516
10
-786.27258184794312
20
-197.35290464102516
10
-786.27258184794312
20
-193.35290464102511
10
-796.27258184794312
20
-193.35290464102511
10
-796.27258184794312
20
-197.35290464102508
10
-806.27258184794312
20
-197.35290464102508
10
-806.27258184794312
20
-193.35290464102511
10
-816.27258184794312
20
-193.35290464102511
10
-816.27258184794312
20
-197.35290464102508
10
-826.27258184794312
20
-197.35290464102508
10
-826.27258184794312
20
-193.35290464102511
10
-836.27258184794312
20
-193.35290464102511
10
-836.27258184794312
20
-197.35290464102508
10
-846.27258184794312
20
-197.35290464102508
10
-846.27258184794312
20
-193.35290464102511
10
-856.27258184794312
20
-193.35290464102511
10
-856.27258184794312
20
-197.35290464102502
10
-866.27258184794312
20
-197.35290464102502
10
-866.27258184794312
20
-193.35290464102502
10
-876.27258184794312
20
-193.35290464102502
10
-876.27258184794312
20
-197.35290464102502
10
-886.27258184794312
20
-197.35290464102502
10
-886.27258184794312
20
-185.90846019658056
10
-882.27258184794323
20
-185.90846019658056
10
-882.27258184794323
20
-174.46401575213613
10
-886.27258184794312
20
-174.46401575213613
10
-886.27258184794312
20
-163.01957130769168
10
-882.27258184794323
20
-163.01957130769168
10
-882.27258184794323
20
-151.57512686324722
10
-886.27258184794312
20
-151.57512686324722
10
-886.27258184794312
20
-140.13068241880279
10
-882.27258184794323
20
-140.13068241880279
10
-882.27258184794323
20
-128.68623797435833
10
-886.27258184794312
20
-128.68623797435833
10
-886.27258184794312
20
-117.24179352991388
10
-882.27258184794323
20
-117.24179352991392
10
-882.27258184794323
20
-105.79734908546946
10
-886.27258184794312
20
-105.79734908546946
10
-886.27258184794312
20
-94.35290464102502
10
-876.27258184794312
20
-94.352904641025049
10
-876.27258184794312
20
-98.352904641025077
10
-866.27258184794312
20
-98.352904641025106
10
-866.27258184794312
20
-94.352904641025063
10
-856.27258184794312
20
-94.352904641025077
10
-856.27258184794312
20
-98.352904641025077
10
-846.27258184794312
20
-98.352904641025106
10
-846.27258184794312
20
-94.352904641025091
10
-836.27258184794312
20
-94.352904641025106
10
-836.27258184794312
20
-98.35290464102512
10
-826.27258184794312
20
-98.352904641025134
10
-826.27258184794312
20
-94.352904641025091
10
-816.27258184794312
20
-94.352904641025106
10
-816.27258184794312
20
-98.352904641025148
10
-806.27258184794312
20
-98.352904641025162
10
-806.27258184794323
20
-94.352904641025134
10
-796.27258184794323
20
-94.352904641025148
10
-796.27258184794323
20
-98.352904641025148
10
-786.27258184794323
20
-98.352904641025162
10
-786.27258184794323
20
-94.352904641025134
10
-776.27258184794323
20
-94.352904641025148
10
-776.27258184794323
20
-98.352904641025191
10
-766.27258184794323
20
-98.352904641025205
10
-766.27258184794323
20
-94.352904641025162
0
LWPOLYLINE
5
105
100
AcDbEntity
8
0
100
AcDbPolyline
90
50
70
1
43
0.0
10
-610.77258184794266
20
-317.84920093732154
10
-610.77258184794266
20
-320.64920093732155
10
-618.21702629238712
20
-320.64920093732161
10
-618.21702629238712
20
-324.64920093732161
10
-629.66147073683157
20
-324.64920093732161
10
-629.66147073683146
20
-320.64920093732161
10
-641.10591518127592
20
-320.64920093732161
10
-641.10591518127592
20
-324.64920093732161
10
-652.55035962572038
20
-324.64920093732161
10
-652.55035962572038
20
-320.64920093732161
10
-663.99480407016483
20
-320.64920093732167
10
-663.99480407016483
20
-324.64920093732167
10
-675.43924851460929
20
-324.64920093732161
10
-675.43924851460929
20
-320.64920093732167
10
-686.88369295905375
20
-320.64920093732167
10
-686.88369295905363
20
-324.64920093732167
10
-698.32813740349809
20
-324.64920093732167
10
-698.3281374034982
20
-320.64920093732167
10
-705.77258184794255
20
-320.64920093732167
10
-705.77258184794255
20
-317.84920093732171
10
-709.77258184794255
20
-317.84920093732171
10
-709.77258184794255
20
-311.04920093732164
10
-705.77258184794255
20
-311.04920093732164
10
-705.77258184794255
20
-304.24920093732163
10
-709.77258184794255
20
-304.24920093732169
10
-709.77258184794255
20
-297.44920093732162
10
-705.77258184794277
20
-297.44920093732162
10
-705.77258184794255
20
-290.64920093732161
10
-698.3281358686786
20
-290.64920093732161
10
-698.3281358686786
20
-294.64920093732161
10
-686.88369142423414
20
-294.64920093732167
10
-686.88369142423414
20
-290.64920093732161
10
-675.43924697978969
20
-290.64920093732161
10
-675.43924697978969
20
-294.64920093732155
10
-663.99480253534523
20
-294.64920093732161
10
-663.99480253534523
20
-290.64920093732155
10
-652.55035809090077
20
-290.64920093732155
10
-652.55035809090089
20
-294.64920093732155
10
-641.10591364645643
20
-294.64920093732155
10
-641.10591364645643
20
-290.64920093732155
10
-629.66146920201209
20
-290.6492009373215
10
-629.66146920201209
20
-294.64920093732155
10
-618.21702475756763
20
-294.64920093732155
10
-618.21702475756763
20
-290.6492009373215
10
-606.77258184794277
20
-290.6492009373215
10
-606.77258184794277
20
-304.24920093732158
10
-610.77258184794266
20
-304.24920093732158
10
-610.77258184794266
20
-311.04920093732153
10
-606.77258184794266
20
-311.04920093732153
10
-606.77258184794266
20
-317.8492009373216
0
LWPOLYLINE
5
106
100
AcDbEntity
8
0
100
AcDbPolyline
90
4
70
1
43
0.0
10
-575.67258184794321
20
-235.6492009373207
10
-575.67258184794321
20
-239.64920093732076
10
-568.87258184794314
20
-239.64920093732076
10
-568.87258184794314
20
-235.6492009373207
0
LWPOLYLINE
5
107
100
AcDbEntity
8
0
100
AcDbPolyline
90
44
70
1
43
0.0
10
-561.27258184794323
20
-166.6492009373207
10
-561.27258184794312
20
-308.6492009373207
10
-566.87258184794314
20
-308.6492009373207
10
-566.87258184794314
20
-312.6492009373207
10
-573.67258184794309
20
-312.6492009373207
10
-573.67258184794309
20
-308.64920093732076
10
-580.47258184794305
20
-308.64920093732076
10
-580.47258184794305
20
-312.64920093732076
10
-583.27258184794312
20
-312.64920093732076
10
-583.27258184794323
20
-302.64920093732076
10
-587.27258184794312
20
-302.64920093732076
10
-587.27258184794312
20
-292.64920093732076
10
-583.27258184794323
20
-292.64920093732076
10
-583.27258184794323
20
-282.64920093732076
10
-587.27258184794312
20
-282.64920093732076
10
-587.27258184794312
20
-272.64920093732076
10
-583.27258184794323
20
-272.64920093732076
10
-583.27258184794323
20
-262.64920093732076
10
-587.27258184794323
20
-262.64920093732076
10
-587.27258184794312
20
-252.64920093732073
10
-583.27258184794323
20
-252.64920093732073
10
-583.27258184794323
20
-242.64920093732073
10
-587.27258184794323
20
-242.64920093732073
10
-587.27258184794323
20
-232.64920093732073
10
-583.27258184794323
20
-232.64920093732073
10
-583.27258184794323
20
-222.64920093732073
10
-587.27258184794334
20
-222.64920093732073
10
-587.27258184794323
20
-212.64920093732073
10
-583.27258184794323
20
-212.64920093732073
10
-583.27258184794334
20
-202.64920093732073
10
-587.27258184794334
20
-202.64920093732073
10
-587.27258184794334
20
-192.64920093732073
10
-583.27258184794334
20
-192.64920093732073
10
-583.27258184794334
20
-182.64920093732073
10
-587.27258184794334
20
-182.64920093732073
10
-587.27258184794334
20
-172.64920093732073
10
-583.27258184794334
20
-172.64920093732073
10
-583.27258184794334
20
-162.64920093732073
10
-580.47258184794327
20
-162.64920093732073
10
-580.47258184794327
20
-166.6492009373207
10
-573.67258184794332
20
-166.6492009373207
10
-573.67258184794332
20
-162.64920093732073
10
-566.87258184794337
20
-162.64920093732073
10
-566.87258184794337
20
-166.64920093732064
0
LWPOLYLINE
5
108
100
AcDbEntity
8
0
100
AcDbPolyline
90
20
70
1
43
0.0
10
-542.27258184794232
20
-296.2603120484319
10
-542.27258184794232
20
-303.7047550176614
10
-546.27258184794232
20
-303.70475501766145
10
-546.27258184794255
20
-208.70475501766145
10
-542.27258184794255
20
-208.70475495805678
10
-542.27258184794255
20
-216.14920093732081
10
-538.27258184794255
20
-216.14920093732081
10
-538.27258184794255
20
-227.59364538176527
10
-542.27258184794255
20
-227.59364538176527
10
-542.27258184794255
20
-239.03808982620973
10
-538.27258184794243
20
-239.03808982620973
10
-538.27258184794243
20
-250.48253427065416
10
-542.27258184794243
20
-250.48253427065416
10
-542.27258184794243
20
-261.92697871509858
10
-538.27258184794243
20
-261.92697871509858
10
-538.27258184794243
20
-273.37142315954304
10
-542.27258184794232
20
-273.37142315954304
10
-542.27258184794232
20
-284.8158676039875
10
-538.27258184794243
20
-284.81586760398744
10
-538.27258184794243
20
-296.2603120484319
0
LWPOLYLINE
5
109
100
AcDbEntity
8
0
100
AcDbPolyline
90
28
70
1
43
0.0
10
-630.27258184794323
20
-263.64920093732076
10
-630.27258184794323
20
-252.20475649287636
10
-634.27258184794334
20
-252.20475649287638
10
-634.27258184794323
20
-235.79734908546897
10
-630.27258184794323
20
-235.79734908546897
10
-630.27258184794334
20
-224.35290464102454
10
-634.27258184794334
20
-224.35290464102454
10
-634.27258184794334
20
-207.94549723361712
10
-630.27258184794334
20
-207.94549723361712
10
-630.27258184794334
20
-196.50105278917269
10
-634.27258184794346
20
-196.50105278917269
10
-634.27258184794334
20
-180.09364538176527
10
-630.27258184794334
20
-180.09364538176527
10
-630.27258184794346
20
-168.64920093732081
10
-622.67258184794332
20
-168.64920093732081
10
-622.67258184794332
20
-164.64920093732081
10
-615.87258184794337
20
-164.64920093732081
10
-615.87258184794337
20
-168.64920093732076
10
-608.27258184794334
20
-168.64920093732078
10
-608.27258184794334
20
-206.64920093732081
10
-615.6059151812766
20
-206.64920093732081
42
0.99999999999999989
10
-615.6059151812766
20
-225.64920093732081
10
-608.27258184794323
20
-225.64920093732076
10
-608.27258184794323
20
-263.64920093732076
10
-615.87258184794325
20
-263.64920093732076
10
-615.87258184794325
20
-267.64920093732081
10
-622.67258184794321
20
-267.64920093732081
10
-622.67258184794321
20
-263.64920093732081
0
LWPOLYLINE
5
110
100
AcDbEntity
8
0
100
AcDbPolyline
90
8
70
1
43
0.0
10
-655.60591518127649
20
-225.64920093732084
10
-648.27258184794323
20
-225.64920093732084
10
-648.27258184794323
20
-263.64920093732081
10
-670.27258184794323
20
-263.64920093732087
10
-670.27258184794334
20
-168.64920093732084
10
-648.27258184794334
20
-168.64920093732084
10
-648.27258184794334
20
-206.64920093732081
10
-655.60591518127649
20
-206.64920093732087
42
0.99999999999999989
0
LWPOLYLINE
5
111
100
AcDbEntity
8
0
100
AcDbPolyline
90
50
70
1
43
0.0
10
-711.27258184794323
20
-265.14920093732093
10
-711.27258184794323
20
-257.70475649287653
10
-715.27258184794334
20
-257.70475649287653
10
-715.27258184794334
20
-246.26031204843207
10
-711.27258184794323
20
-246.26031204843207
10
-711.27258184794323
20
-234.81586760398761
10
-715.27258184794334
20
-234.81586760398761
10
-715.27258184794334
20
-223.37142315954316
10
-711.27258184794323
20
-223.37142315954316
10
-711.27258184794323
20
-211.92697871509876
10
-715.27258184794334
20
-211.92697871509876
10
-715.27258184794346
20
-200.4825342706543
10
-711.27258184794346
20
-200.4825342706543
10
-711.27258184794323
20
-189.03808982620984
10
-715.27258184794334
20
-189.03808982620984
10
-715.27258184794346
20
-177.59364538176541
10
-711.27258184794346
20
-177.59364538176541
10
-711.27258184794346
20
-170.14920093732093
10
-708.47258184794339
20
-170.14920093732093
10
-708.47258184794339
20
-166.14920093732096
10
-701.67258184794332
20
-166.14920093732096
10
-701.67258184794355
20
-170.14920093732093
10
-694.87258184794337
20
-170.14920093732093
10
-694.87258184794337
20
-166.14920093732096
10
-688.07258184794341
20
-166.14920093732096
10
-688.07258184794341
20
-170.14920093732087
10
-681.27258184794323
20
-170.1492009373209
10
-681.27258184794323
20
-177.59364691658493
10
-685.27258184794334
20
-177.59364691658493
10
-685.27258184794334
20
-189.03809136102939
10
-681.27258184794323
20
-189.03809136102939
10
-681.27258184794323
20
-200.48253580547384
10
-685.27258184794334
20
-200.48253580547384
10
-685.27258184794334
20
-211.92698024991827
10
-681.27258184794323
20
-211.92698024991827
10
-681.27258184794323
20
-223.37142469436273
10
-685.27258184794323
20
-223.37142469436273
10
-685.27258184794334
20
-234.81586913880716
10
-681.27258184794323
20
-234.81586913880716
10
-681.27258184794312
20
-246.26031358325162
10
-685.27258184794323
20
-246.26031358325156
10
-685.27258184794334
20
-257.70475802769602
10
-681.27258184794323
20
-257.70475802769602
10
-681.27258184794323
20
-269.14920093732087
10
-694.87258184794325
20
-269.14920093732087
10
-694.87258184794314
20
-265.14920093732093
10
-701.67258184794321
20
-265.14920093732093
10
-701.67258184794321
20
-269.14920093732093
10
-708.47258184794327
20
-269.14920093732093
10
-708.47258184794327
20
-265.14920093732093
0
LWPOLYLINE
5
112
100
AcDbEntity
8
0
100
AcDbPolyline
90
4
70
1
43
0.0
10
-651.272581847943
20
-123.24920093732109
10
-655.272581847943
20
-123.24920093732109
10
-655.272581847943
20
-130.0492009373211
10
-651.272581847943
20
-130.0492009373211
0
LWPOLYLINE
5
113
100
AcDbEntity
8
0
100
AcDbPolyline
90
48
70
1
43
0.0
10
-728.27258184794289
20
-121.24920093732118
10
-724.272581847943
20
-121.24920093732118
10
-724.27258184794312
20
-114.44920093732117
10
-728.272581847943
20
-114.44920093732117
10
-728.27258184794323
20
-107.64920093732115
10
-578.27258184794323
20
-107.64920093732096
10
-578.27258184794323
20
-114.44920093732097
10
-582.27258184794312
20
-114.44920093732097
10
-582.27258184794312
20
-121.24920093732099
10
-578.27258184794312
20
-121.24920093732099
10
-578.27258184794323
20
-128.04920093732102
10
-582.27258184794312
20
-128.04920093732102
10
-582.27258184794312
20
-134.84920093732103
10
-578.27258184794312
20
-134.849200937321
10
-578.27258184794312
20
-137.64920093732101
10
-588.27258184794312
20
-137.64920093732104
10
-588.27258184794312
20
-141.64920093732104
10
-598.27258184794312
20
-141.64920093732104
10
-598.27258184794312
20
-137.64920093732104
10
-608.27258184794312
20
-137.64920093732107
10
-608.27258184794312
20
-141.64920093732107
10
-618.27258184794312
20
-141.64920093732107
10
-618.27258184794312
20
-137.64920093732107
10
-628.27258184794312
20
-137.6492009373211
10
-628.27258184794312
20
-141.6492009373211
10
-638.27258184794312
20
-141.6492009373211
10
-638.272581847943
20
-137.6492009373211
10
-648.272581847943
20
-137.64920093732113
10
-648.272581847943
20
-141.64920093732113
10
-658.272581847943
20
-141.64920093732113
10
-658.272581847943
20
-137.64920093732113
10
-668.272581847943
20
-137.64920093732113
10
-668.272581847943
20
-141.64920093732115
10
-678.272581847943
20
-141.64920093732115
10
-678.272581847943
20
-137.64920093732115
10
-688.272581847943
20
-137.64920093732118
10
-688.272581847943
20
-141.64920093732118
10
-698.272581847943
20
-141.64920093732118
10
-698.272581847943
20
-137.64920093732118
10
-708.272581847943
20
-137.64920093732118
10
-708.272581847943
20
-141.64920093732118
10
-718.272581847943
20
-141.64920093732121
10
-718.272581847943
20
-137.64920093732121
10
-728.272581847943
20
-137.64920093732121
10
-728.27258184794289
20
-134.8492009373212
10
-724.272581847943
20
-134.8492009373212
10
-724.27258184794312
20
-128.04920093732119
10
-728.272581847943
20
-128.04920093732119
0
LWPOLYLINE
5
114
100
AcDbEntity
8
0
100
AcDbPolyline
90
8
70
1
43
0.0
10
-645.27258184794323
20
-69.982534270653943
42
-0.99999999999999989
10
-664.27258184794323
20
-69.982534270653872
10
-664.27258184794323
20
-62.649200937320522
10
-702.27258184794323
20
-62.649200937320558
10
-702.27258184794334
20
-84.649200937320614
10
-607.27258184794323
20
-84.649200937320472
10
-607.27258184794334
20
-62.649200937320444
10
-645.27258184794334
20
-62.649200937320487
0
LWPOLYLINE
5
115
100
AcDbEntity
8
0
100
AcDbPolyline
90
20
70
1
43
0.0
10
-558.27258184794368
20
-76.2047564928762
10
-558.27258184794368
20
-64.760312048431743
10
-562.27258184794368
20
-64.760312048431743
10
-562.2725818479438
20
-53.315867603987293
10
-558.2725818479438
20
-53.315867603987286
10
-558.27258184794368
20
-45.871421624723261
10
-554.2725818479438
20
-45.87142162472324
10
-554.27258184794357
20
-140.87142162472321
10
-558.27258184794357
20
-140.87142162472321
10
-558.27258184794357
20
-133.42697871509839
10
-562.27258184794357
20
-133.42697871509841
10
-562.27258184794357
20
-121.98253427065396
10
-558.27258184794368
20
-121.98253427065396
10
-558.27258184794357
20
-110.5380898262095
10
-562.27258184794368
20
-110.53808982620953
10
-562.27258184794368
20
-99.093645381765072
10
-558.27258184794368
20
-99.093645381765072
10
-558.27258184794368
20
-87.649200937320614
10
-562.27258184794368
20
-87.649200937320657
10
-562.27258184794368
20
-76.204756492876214
0
LWPOLYLINE
5
116
100
AcDbEntity
8
0
100
AcDbPolyline
90
28
70
1
43
0.0
10
-860.47258184794305
20
-62.649200937321289
10
-870.47258184794305
20
-62.649200937321332
10
-870.47258184794282
20
-58.649200937321282
10
-728.47258184794282
20
-58.649200937321055
10
-728.47258184794282
20
-62.649200937321091
10
-738.47258184794282
20
-62.649200937321112
10
-738.47258184794282
20
-66.649200937321112
10
-748.47258184794282
20
-66.649200937321126
10
-748.47258184794305
20
-62.649200937321126
10
-760.87258184794291
20
-62.64920093732114
10
-760.87258184794291
20
-66.64920093732114
10
-770.87258184794291
20
-66.649200937321154
10
-770.87258184794291
20
-62.649200937321154
10
-783.27258184794289
20
-62.649200937321169
10
-783.27258184794289
20
-66.649200937321183
10
-793.27258184794289
20
-66.649200937321197
10
-793.272581847943
20
-62.64920093732119
10
-805.67258184794298
20
-62.649200937321211
10
-805.67258184794298
20
-66.649200937321211
10
-815.67258184794298
20
-66.649200937321226
10
-815.67258184794298
20
-62.649200937321226
10
-828.07258184794296
20
-62.64920093732124
10
-828.07258184794296
20
-66.64920093732124
10
-838.07258184794296
20
-66.649200937321268
10
-838.07258184794307
20
-62.649200937321261
10
-850.47258184794305
20
-62.649200937321282
10
-850.47258184794305
20
-66.649200937321268
10
-860.47258184794305
20
-66.649200937321297
0
LWPOLYLINE
5
117
100
AcDbEntity
8
0
100
AcDbPolyline
90
44
70
1
43
0.0
10
-566.79258184794332
20
-162.56920093732074
10
-566.79258184794332
20
-166.56920093732066
10
-561.1925818479433
20
-166.56920093732072
10
-561.19258184794307
20
-308.72920093732068
10
-566.7925818479431
20
-308.72920093732068
10
-566.7925818479431
20
-312.72920093732068
10
-573.75258184794313
20
-312.72920093732068
10
-573.75258184794313
20
-308.72920093732074
10
-580.39258184794312
20
-308.72920093732074
10
-580.39258184794312
20
-312.72920093732074
10
-583.35258184794316
20
-312.72920093732074
10
-583.35258184794316
20
-302.72920093732074
10
-587.35258184794316
20
-302.72920093732074
10
-587.35258184794316
20
-292.56920093732072
10
-583.35258184794316
20
-292.56920093732072
10
-583.35258184794316
20
-282.72920093732074
10
-587.35258184794316
20
-282.72920093732074
10
-587.35258184794316
20
-272.56920093732072
10
-583.35258184794316
20
-272.56920093732072
10
-583.35258184794327
20
-262.72920093732074
10
-587.35258184794327
20
-262.72920093732074
10
-587.35258184794316
20
-252.56920093732074
10
-583.35258184794327
20
-252.56920093732074
10
-583.35258184794327
20
-242.72920093732071
10
-587.35258184794327
20
-242.72920093732071
10
-587.35258184794327
20
-232.56920093732074
10
-583.35258184794327
20
-232.56920093732074
10
-583.35258184794327
20
-222.72920093732071
10
-587.35258184794338
20
-222.72920093732071
10
-587.35258184794327
20
-212.56920093732074
10
-583.35258184794327
20
-212.56920093732074
10
-583.35258184794338
20
-202.72920093732071
10
-587.35258184794338
20
-202.72920093732071
10
-587.35258184794338
20
-192.56920093732074
10
-583.35258184794338
20
-192.56920093732074
10
-583.35258184794338
20
-182.72920093732071
10
-587.35258184794338
20
-182.72920093732071
10
-587.35258184794338
20
-172.56920093732074
10
-583.35258184794338
20
-172.56920093732074
10
-583.35258184794338
20
-162.56920093732074
10
-580.39258184794323
20
-162.56920093732074
10
-580.39258184794323
20
-166.56920093732072
10
-573.75258184794336
20
-166.56920093732072
10
-573.75258184794336
20
-162.56920093732074
0
LWPOLYLINE
5
118
100
AcDbEntity
8
0
100
AcDbPolyline
90
20
70
1
43
0.0
10
-542.19258184794228
20
-296.34031204843188
10
-542.19258184794228
20
-303.78475501766138
10
-546.35258184794236
20
-303.78475501766144
10
-546.35258184794259
20
-208.62475501885353
10
-542.19258184794262
20
-208.62475495686471
10
-542.19258184794262
20
-216.06920093732083
10
-538.19258184794251
20
-216.06920093732083
10
-538.19258184794251
20
-227.67364538176525
10
-542.19258184794251
20
-227.67364538176525
10
-542.19258184794251
20
-238.95808982620974
10
-538.19258184794239
20
-238.95808982620974
10
-538.19258184794239
20
-250.56253427065414
10
-542.19258184794239
20
-250.56253427065414
10
-542.19258184794239
20
-261.8469787150986
10
-538.19258184794239
20
-261.8469787150986
10
-538.19258184794239
20
-273.45142315954303
10
-542.19258184794239
20
-273.45142315954303
10
-542.19258184794239
20
-284.73586760398751
10
-538.19258184794239
20
-284.73586760398746
10
-538.19258184794239
20
-296.34031204843188
0
LWPOLYLINE
5
119
100
AcDbEntity
8
0
100
AcDbPolyline
90
50
70
1
43
0.0
10
-641.02591518127599
20
-324.72920093732165
10
-652.6303596257203
20
-324.72920093732165
10
-652.6303596257203
20
-320.72920093732165
10
-663.91480407016491
20
-320.72920093732171
10
-663.91480407016491
20
-324.72920093732171
10
-675.51924851460922
20
-324.72920093732165
10
-675.51924851460922
20
-320.72920093732171
10
-686.80369295905382
20
-320.72920093732171
10
-686.80369295905371
20
-324.72920093732171
10
-698.40813740349802
20
-324.72920093732171
10
-698.40813740349813
20
-320.72920093732171
10
-705.85258184794259
20
-320.72920093732171
10
-705.85258184794259
20
-317.9292009373217
10
-709.85258184794247
20
-317.9292009373217
10
-709.85258184794247
20
-310.96920093732166
10
-705.85258184794259
20
-310.96920093732166
10
-705.85258184794259
20
-304.32920093732162
10
-709.85258184794247
20
-304.32920093732167
10
-709.85258184794247
20
-297.36920093732164
10
-705.8525818479427
20
-297.36920093732164
10
-705.85258184794259
20
-290.56920093732163
10
-698.24813586867867
20
-290.56920093732163
10
-698.24813586867867
20
-294.56920093732163
10
-686.96369142423407
20
-294.56920093732163
10
-686.96369142423407
20
-290.56920093732163
10
-675.35924697978976
20
-290.56920093732163
10
-675.35924697978976
20
-294.56920093732157
10
-664.07480253534516
20
-294.56920093732163
10
-664.07480253534516
20
-290.56920093732157
10
-652.47035809090085
20
-290.56920093732157
10
-652.47035809090096
20
-294.56920093732157
10
-641.18591364645636
20
-294.56920093732157
10
-641.18591364645636
20
-290.56920093732157
10
-629.58146920201204
20
-290.56920093732151
10
-629.58146920201204
20
-294.56920093732157
10
-618.29702475756767
20
-294.56920093732157
10
-618.29702475756767
20
-290.56920093732151
10
-606.69258184794273
20
-290.56920093732151
10
-606.69258184794273
20
-304.32920093732156
10
-610.69258184794262
20
-304.32920093732156
10
-610.69258184794262
20
-310.96920093732155
10
-606.69258184794262
20
-310.96920093732155
10
-606.69258184794262
20
-317.92920093732158
10
-610.69258184794262
20
-317.92920093732153
10
-610.69258184794262
20
-320.72920093732159
10
-618.13702629238708
20
-320.72920093732165
10
-618.13702629238708
20
-324.72920093732165
10
-629.74147073683162
20
-324.72920093732165
10
-629.7414707368315
20
-320.72920093732165
10
-641.02591518127599
20
-320.72920093732165
0
LWPOLYLINE
5
120
100
AcDbEntity
8
0
100
AcDbPolyline
90
28
70
1
43
0.0
10
-630.35258184794327
20
-263.7292009373208
10
-630.35258184794327
20
-252.28475649287634
10
-634.35258184794338
20
-252.2847564928764
10
-634.35258184794327
20
-235.71734908546898
10
-630.35258184794327
20
-235.71734908546898
10
-630.35258184794338
20
-224.43290464102455
10
-634.35258184794338
20
-224.43290464102455
10
-634.35258184794338
20
-207.86549723361713
10
-630.35258184794338
20
-207.86549723361713
10
-630.35258184794338
20
-196.5810527891727
10
-634.35258184794338
20
-196.5810527891727
10
-634.35258184794338
20
-180.01364538176529
10
-630.35258184794338
20
-180.01364538176529
10
-630.35258184794338
20
-168.56920093732083
10
-622.75258184794336
20
-168.56920093732083
10
-622.75258184794336
20
-164.56920093732083
10
-615.79258184794332
20
-164.56920093732083
10
-615.79258184794332
20
-168.56920093732074
10
-608.1925818479433
20
-168.56920093732077
10
-608.1925818479433
20
-206.7292009373208
10
-615.6059151812766
20
-206.7292009373208
42
0.99999999999999989
10
-615.6059151812766
20
-225.56920093732083
10
-608.19258184794319
20
-225.56920093732077
10
-608.19258184794319
20
-263.7292009373208
10
-615.79258184794321
20
-263.7292009373208
10
-615.79258184794321
20
-267.7292009373208
10
-622.75258184794325
20
-267.7292009373208
10
-622.75258184794325
20
-263.7292009373208
0
LWPOLYLINE
5
121
100
AcDbEntity
8
0
100
AcDbPolyline
90
8
70
1
43
0.0
10
-655.60591518127683
20
-225.56920093732086
42
-0.99999999999999989
10
-655.60591518127649
20
-206.72920093732085
10
-648.1925818479433
20
-206.7292009373208
10
-648.1925818479433
20
-168.56920093732086
10
-670.35258184794327
20
-168.56920093732086
10
-670.35258184794316
20
-263.72920093732085
10
-648.19258184794319
20
-263.7292009373208
10
-648.19258184794319
20
-225.56920093732086
0
LWPOLYLINE
5
122
100
AcDbEntity
8
0
100
AcDbPolyline
90
50
70
1
43
0.0
10
-685.19258184794342
20
-257.62475802769603
10
-681.1925818479433
20
-257.62475802769603
10
-681.1925818479433
20
-269.22920093732091
10
-694.95258184794329
20
-269.22920093732091
10
-694.95258184794307
20
-265.22920093732091
10
-701.59258184794328
20
-265.22920093732091
10
-701.59258184794328
20
-269.22920093732091
10
-708.5525818479432
20
-269.22920093732091
10
-708.5525818479432
20
-265.22920093732091
10
-711.35258184794327
20
-265.22920093732091
10
-711.35258184794327
20
-257.78475649287651
10
-715.35258184794327
20
-257.78475649287651
10
-715.35258184794327
20
-246.18031204843209
10
-711.35258184794327
20
-246.18031204843209
10
-711.35258184794327
20
-234.89586760398763
10
-715.35258184794327
20
-234.89586760398763
10
-715.35258184794327
20
-223.29142315954317
10
-711.35258184794327
20
-223.29142315954317
10
-711.35258184794327
20
-212.00697871509874
10
-715.35258184794327
20
-212.00697871509874
10
-715.35258184794338
20
-200.40253427065431
10
-711.35258184794338
20
-200.40253427065431
10
-711.35258184794327
20
-189.11808982620983
10
-715.35258184794327
20
-189.11808982620983
10
-715.35258184794338
20
-177.51364538176543
10
-711.35258184794338
20
-177.51364538176543
10
-711.35258184794338
20
-170.06920093732094
10
-708.55258184794343
20
-170.06920093732094
10
-708.55258184794343
20
-166.06920093732097
10
-701.59258184794339
20
-166.06920093732097
10
-701.59258184794351
20
-170.06920093732094
10
-694.95258184794341
20
-170.06920093732094
10
-694.95258184794341
20
-166.06920093732097
10
-687.99258184794337
20
-166.06920093732097
10
-687.99258184794337
20
-170.06920093732089
10
-681.1925818479433
20
-170.06920093732091
10
-681.1925818479433
20
-177.67364691658491
10
-685.19258184794342
20
-177.67364691658491
10
-685.19258184794342
20
-188.9580913610294
10
-681.1925818479433
20
-188.9580913610294
10
-681.1925818479433
20
-200.56253580547383
10
-685.19258184794342
20
-200.56253580547383
10
-685.19258184794342
20
-211.84698024991829
10
-681.1925818479433
20
-211.84698024991829
10
-681.1925818479433
20
-223.45142469436271
10
-685.1925818479433
20
-223.45142469436271
10
-685.19258184794342
20
-234.73586913880717
10
-681.1925818479433
20
-234.73586913880717
10
-681.19258184794319
20
-246.3403135832516
10
-685.1925818479433
20
-246.34031358325157
0
LWPOLYLINE
5
123
100
AcDbEntity
8
0
100
AcDbPolyline
90
28
70
1
43
0.0
10
-750.95258184794318
20
-216.56920093732097
10
-750.95258184794318
20
-212.56920093732094
10
-740.79258184794321
20
-212.56920093732094
10
-740.79258184794298
20
-311.72920093732097
10
-882.95258184794284
20
-311.72920093732114
10
-882.95258184794307
20
-212.56920093732111
10
-872.79258184794321
20
-212.56920093732111
10
-872.79258184794321
20
-216.56920093732114
10
-862.95258184794307
20
-216.56920093732114
10
-862.95258184794307
20
-212.56920093732109
10
-850.39258184794323
20
-212.56920093732109
10
-850.39258184794323
20
-216.56920093732111
10
-840.55258184794309
20
-216.56920093732111
10
-840.55258184794309
20
-212.56920093732109
10
-827.99258184794326
20
-212.56920093732109
10
-827.99258184794326
20
-216.56920093732109
10
-818.15258184794311
20
-216.56920093732109
10
-818.15258184794311
20
-212.56920093732106
10
-805.59258184794328
20
-212.56920093732103
10
-805.59258184794328
20
-216.56920093732106
10
-795.75258184794325
20
-216.56920093732106
10
-795.75258184794302
20
-212.569200937321
10
-783.19258184794319
20
-212.569200937321
10
-783.19258184794319
20
-216.569200937321
10
-773.35258184794316
20
-216.569200937321
10
-773.35258184794316
20
-212.56920093732094
10
-760.79258184794321
20
-212.56920093732094
10
-760.79258184794321
20
-216.56920093732097
0
LWPOLYLINE
5
124
100
AcDbEntity
8
0
100
AcDbPolyline
90
92
70
1
43
0.0
10
-736.1925818479433
20
-162.93957130769186
10
-736.1925818479433
20
-174.54401575213632
10
-740.1925818479433
20
-174.54401575213632
10
-740.19258184794307
20
-185.82846019658075
10
-736.19258184794319
20
-185.82846019658069
10
-736.19258184794319
20
-197.43290464102515
10
-746.35258184794316
20
-197.43290464102515
10
-746.35258184794316
20
-193.43290464102517
10
-756.19258184794319
20
-193.43290464102517
10
-756.19258184794319
20
-197.43290464102515
10
-766.35258184794316
20
-197.43290464102515
10
-766.35258184794316
20
-193.43290464102517
10
-776.19258184794319
20
-193.43290464102517
10
-776.19258184794319
20
-197.43290464102515
10
-786.35258184794316
20
-197.43290464102515
10
-786.35258184794316
20
-193.43290464102509
10
-796.19258184794319
20
-193.43290464102509
10
-796.19258184794319
20
-197.43290464102506
10
-806.35258184794316
20
-197.43290464102506
10
-806.35258184794316
20
-193.43290464102509
10
-816.19258184794319
20
-193.43290464102509
10
-816.19258184794319
20
-197.43290464102506
10
-826.35258184794316
20
-197.43290464102506
10
-826.35258184794316
20
-193.43290464102509
10
-836.19258184794319
20
-193.43290464102509
10
-836.19258184794319
20
-197.43290464102506
10
-846.35258184794316
20
-197.43290464102506
10
-846.35258184794316
20
-193.43290464102509
10
-856.19258184794319
20
-193.43290464102509
10
-856.19258184794319
20
-197.432904641025
10
-866.35258184794316
20
-197.432904641025
10
-866.35258184794316
20
-193.432904641025
10
-876.19258184794319
20
-193.432904641025
10
-876.19258184794319
20
-197.432904641025
10
-886.35258184794316
20
-197.432904641025
10
-886.35258184794316
20
-185.82846019658058
10
-882.35258184794316
20
-185.82846019658058
10
-882.35258184794316
20
-174.54401575213612
10
-886.35258184794316
20
-174.54401575213612
10
-886.35258184794316
20
-162.93957130769169
10
-882.35258184794316
20
-162.93957130769169
10
-882.35258184794316
20
-151.6551268632472
10
-886.35258184794316
20
-151.6551268632472
10
-886.35258184794316
20
-140.05068241880281
10
-882.35258184794316
20
-140.05068241880281
10
-882.35258184794316
20
-128.76623797435832
10
-886.35258184794316
20
-128.76623797435832
10
-886.35258184794316
20
-117.16179352991389
10
-882.35258184794316
20
-117.16179352991392
10
-882.35258184794316
20
-105.87734908546946
10
-886.35258184794316
20
-105.87734908546946
10
-886.35258184794316
20
-94.272904641025036
10
-876.19258184794319
20
-94.27290464102505
10
-876.19258184794319
20
-98.272904641025093
10
-866.35258184794316
20
-98.272904641025107
10
-866.35258184794316
20
-94.272904641025065
10
-856.19258184794319
20
-94.272904641025093
10
-856.19258184794319
20
-98.272904641025093
10
-846.35258184794316
20
-98.272904641025107
10
-846.35258184794316
20
-94.272904641025107
10
-836.19258184794319
20
-94.272904641025121
10
-836.19258184794319
20
-98.272904641025121
10
-826.35258184794316
20
-98.27290464102515
10
-826.35258184794316
20
-94.272904641025107
10
-816.19258184794319
20
-94.272904641025121
10
-816.19258184794319
20
-98.272904641025164
10
-806.35258184794316
20
-98.272904641025178
10
-806.35258184794327
20
-94.272904641025136
10
-796.1925818479433
20
-94.27290464102515
10
-796.1925818479433
20
-98.272904641025164
10
-786.35258184794327
20
-98.272904641025178
10
-786.35258184794327
20
-94.272904641025136
10
-776.1925818479433
20
-94.27290464102515
10
-776.1925818479433
20
-98.272904641025193
10
-766.35258184794327
20
-98.272904641025207
10
-766.35258184794327
20
-94.272904641025178
10
-756.1925818479433
20
-94.272904641025193
10
-756.1925818479433
20
-98.272904641025207
10
-746.35258184794327
20
-98.272904641025207
10
-746.35258184794327
20
-94.272904641025207
10
-736.1925818479433
20
-94.272904641025235
10
-736.1925818479433
20
-105.87734908546963
10
-740.1925818479433
20
-105.8773490854696
10
-740.1925818479433
20
-117.16179352991406
10
-736.1925818479433
20
-117.16179352991406
10
-736.1925818479433
20
-128.76623797435852
10
-740.1925818479433
20
-128.76623797435852
10
-740.1925818479433
20
-140.05068241880298
10
-736.1925818479433
20
-140.05068241880298
10
-736.1925818479433
20
-151.6551268632474
10
-740.1925818479433
20
-151.6551268632474
10
-740.1925818479433
20
-162.93957130769186
0
LWPOLYLINE
5
125
100
AcDbEntity
8
0
100
AcDbPolyline
90
4
70
1
43
0.0
10
-813.1925818479433
20
-165.58105278917321
10
-813.1925818479433
20
-181.82846019658064
10
-809.35258184794316
20
-181.82846019658064
10
-809.35258184794316
20
-165.58105278917321
0
LWPOLYLINE
5
126
100
AcDbEntity
8
0
100
AcDbPolyline
90
4
70
1
43
0.0
10
-813.1925818479433
20
-137.72920093732137
10
-813.1925818479433
20
-153.97660834472879
10
-809.35258184794316
20
-153.97660834472879
10
-809.35258184794316
20
-137.72920093732137
0
LWPOLYLINE
5
127
100
AcDbEntity
8
0
100
AcDbPolyline
90
4
70
1
43
0.0
10
-813.1925818479433
20
-109.87734908546955
10
-813.1925818479433
20
-126.12475649287695
10
-809.35258184794316
20
-126.124756492877
10
-809.35258184794316
20
-109.87734908546955
0
LWPOLYLINE
5
128
100
AcDbEntity
8
0
100
AcDbPolyline
90
48
70
1
43
0.0
10
-724.35258184794304
20
-114.52920093732116
10
-728.35258184794293
20
-114.52920093732116
10
-728.35258184794316
20
-107.56920093732117
10
-578.19258184794319
20
-107.56920093732097
10
-578.19258184794319
20
-114.52920093732097
10
-582.19258184794307
20
-114.52920093732097
10
-582.19258184794307
20
-121.16920093732099
10
-578.19258184794307
20
-121.16920093732099
10
-578.19258184794319
20
-128.129200937321
10
-582.19258184794307
20
-128.129200937321
10
-582.19258184794307
20
-134.76920093732102
10
-578.19258184794307
20
-134.76920093732102
10
-578.19258184794307
20
-137.729200937321
10
-588.19258184794307
20
-137.72920093732102
10
-588.19258184794307
20
-141.72920093732102
10
-598.35258184794316
20
-141.72920093732105
10
-598.35258184794316
20
-137.72920093732102
10
-608.19258184794307
20
-137.72920093732105
10
-608.19258184794307
20
-141.72920093732105
10
-618.35258184794316
20
-141.72920093732105
10
-618.35258184794316
20
-137.72920093732105
10
-628.19258184794307
20
-137.72920093732108
10
-628.19258184794307
20
-141.72920093732108
10
-638.35258184794316
20
-141.72920093732108
10
-638.35258184794304
20
-137.72920093732108
10
-648.19258184794307
20
-137.72920093732111
10
-648.19258184794307
20
-141.72920093732111
10
-658.35258184794293
20
-141.72920093732111
10
-658.35258184794293
20
-137.72920093732111
10
-668.19258184794307
20
-137.72920093732114
10
-668.19258184794307
20
-141.72920093732114
10
-678.35258184794293
20
-141.72920093732114
10
-678.35258184794293
20
-137.72920093732114
10
-688.19258184794307
20
-137.72920093732117
10
-688.19258184794307
20
-141.72920093732117
10
-698.35258184794293
20
-141.72920093732117
10
-698.35258184794293
20
-137.72920093732117
10
-708.19258184794307
20
-137.7292009373212
10
-708.19258184794307
20
-141.7292009373212
10
-718.35258184794293
20
-141.7292009373212
10
-718.35258184794293
20
-137.7292009373212
10
-728.35258184794293
20
-137.72920093732122
10
-728.35258184794282
20
-134.76920093732122
10
-724.35258184794293
20
-134.76920093732122
10
-724.35258184794304
20
-128.1292009373212
10
-728.35258184794293
20
-128.1292009373212
10
-728.35258184794282
20
-121.16920093732119
10
-724.35258184794293
20
-121.16920093732119
0
LWPOLYLINE
5
129
100
AcDbEntity
8
0
100
AcDbPolyline
90
8
70
1
43
0.0
10
-645.35258184794327
20
-62.569200937320488
10
-607.1925818479433
20
-62.569200937320446
10
-607.19258184794319
20
-84.729200937320456
10
-702.35258184794338
20
-84.729200937320599
10
-702.35258184794316
20
-62.569200937320559
10
-664.1925818479433
20
-62.569200937320524
10
-664.1925818479433
20
-69.982534270653872
42
0.99999999999999989
10
-645.35258184794316
20
-69.982534270653943
0
LWPOLYLINE
5
130
100
AcDbEntity
8
0
100
AcDbPolyline
90
28
70
1
43
0.0
10
-738.39258184794289
20
-66.72920093732111
10
-748.55258184794275
20
-66.729200937321139
10
-748.55258184794297
20
-62.729200937321124
10
-760.79258184794298
20
-62.729200937321139
10
-760.79258184794298
20
-66.729200937321139
10
-770.95258184794284
20
-66.729200937321153
10
-770.95258184794284
20
-62.729200937321153
10
-783.19258184794296
20
-62.729200937321174
10
-783.19258184794296
20
-66.729200937321181
10
-793.35258184794282
20
-66.729200937321195
10
-793.35258184794293
20
-62.729200937321188
10
-805.59258184794305
20
-62.72920093732121
10
-805.59258184794305
20
-66.72920093732121
10
-815.75258184794291
20
-66.729200937321224
10
-815.75258184794291
20
-62.729200937321224
10
-827.99258184794303
20
-62.729200937321245
10
-827.99258184794303
20
-66.729200937321252
10
-838.15258184794288
20
-66.729200937321266
10
-838.152581847943
20
-62.729200937321259
10
-850.39258184794312
20
-62.729200937321281
10
-850.39258184794312
20
-66.729200937321281
10
-860.55258184794297
20
-66.729200937321295
10
-860.55258184794297
20
-62.729200937321288
10
-870.55258184794297
20
-62.72920093732133
10
-870.55258184794286
20
-58.569200937321284
10
-728.39258184794289
20
-58.569200937321057
10
-728.39258184794289
20
-62.729200937321096
10
-738.39258184794289
20
-62.72920093732111
0
LWPOLYLINE
5
131
100
AcDbEntity
8
0
100
AcDbPolyline
90
20
70
1
43
0.0
10
-558.35258184794384
20
-53.235867603987288
10
-558.35258184794372
20
-45.791421624723263
10
-554.19258184794376
20
-45.791421624723228
10
-554.19258184794353
20
-140.9514216247232
10
-558.35258184794361
20
-140.9514216247232
10
-558.35258184794361
20
-133.50697871509837
10
-562.35258184794361
20
-133.5069787150984
10
-562.35258184794361
20
-121.90253427065397
10
-558.35258184794372
20
-121.90253427065397
10
-558.35258184794361
20
-110.61808982620948
10
-562.35258184794372
20
-110.61808982620953
10
-562.35258184794372
20
-99.013645381765087
10
-558.35258184794372
20
-99.013645381765087
10
-558.35258184794372
20
-87.729200937320613
10
-562.35258184794372
20
-87.729200937320655
10
-562.35258184794372
20
-76.124756492876202
10
-558.35258184794372
20
-76.124756492876202
10
-558.35258184794372
20
-64.840312048431741
10
-562.35258184794372
20
-64.840312048431741
10
-562.35258184794384
20
-53.235867603987295
0
LWPOLYLINE
5
132
100
AcDbEntity
8
0
100
AcDbPolyline
90
4
70
1
43
0.0
10
-651.35258184794293
20
-129.96920093732112
10
-651.35258184794293
20
-123.32920093732108
10
-655.19258184794307
20
-123.32920093732108
10
-655.19258184794307
20
-129.96920093732112
0
LWPOLYLINE
5
133
100
AcDbEntity
8
0
100
AcDbPolyline
90
4
70
1
43
0.0
10
-575.59258184794317
20
-239.56920093732077
10
-568.95258184794318
20
-239.56920093732077
10
-568.95258184794318
20
-235.72920093732068
10
-575.59258184794317
20
-235.72920093732068
0
ENDSEC
0
SECTION
2
OBJECTS
0
DICTIONARY
5
C
100
AcDbDictionary
3
ACAD_GROUP
350
D
3
ACAD_MLINESTYLE
350
17
0
DICTIONARY
5
D
100
AcDbDictionary
0
DICTIONARY
5
1A
330
C
100
AcDbDictionary
0
DICTIONARY
5
17
100
AcDbDictionary
0
ENDSEC
0
EOF
